<svg width="100" height="100" viewBox="0 0 100 100" fill="none" xmlns="http://www.w3.org/2000/svg">
<path d="M0 50C0 22.3858 22.3858 0 50 0C77.6142 0 100 22.3858 100 50C100 77.6142 77.6142 100 50 100C22.3858 100 0 77.6142 0 50Z" fill="#EDEBF7"/>
<path d="M40.5469 59.4531C43.2031 62.0573 46.3542 63.3594 50 63.3594C53.6458 63.3594 56.7708 62.0573 59.375 59.4531C62.0312 56.7969 63.3594 53.6458 63.3594 50C63.3594 46.3542 62.0312 43.2292 59.375 40.625C56.7708 37.9688 53.6458 36.6406 50 36.6406C46.3542 36.6406 43.2031 37.9688 40.5469 40.625C37.9427 43.2292 36.6406 46.3542 36.6406 50C36.6406 53.6458 37.9427 56.7969 40.5469 59.4531ZM38.2031 38.2812C41.4844 35 45.4167 33.3594 50 33.3594C54.5833 33.3594 58.4896 35 61.7188 38.2812C65 41.5104 66.6406 45.4167 66.6406 50C66.6406 54.5833 65 58.5156 61.7188 61.7969C58.4896 65.026 54.5833 66.6406 50 66.6406C45.4167 66.6406 41.4844 65.026 38.2031 61.7969C34.974 58.5156 33.3594 54.5833 33.3594 50C33.3594 45.4167 34.974 41.5104 38.2031 38.2812ZM53.75 40.8594C55.1042 41.4323 56.1979 42.1354 57.0312 42.9688C57.8646 43.8021 58.5677 44.8958 59.1406 46.25C59.7135 47.6042 60 48.8542 60 50C60 51.1458 59.7135 52.3958 59.1406 53.75C58.6198 55.1042 57.9427 56.1979 57.1094 57.0312C55.1823 59.0104 52.8385 60 50.0781 60C47.3177 60 44.9479 59.0104 42.9688 57.0312L50 50V40C51.1458 40 52.3958 40.2865 53.75 40.8594Z" fill="#3C2769"/>
</svg>
