<svg width="100" height="100" viewBox="0 0 100 100" fill="none" xmlns="http://www.w3.org/2000/svg">
<path d="M0 50C0 22.3858 22.3858 0 50 0C77.6142 0 100 22.3858 100 50C100 77.6142 77.6142 100 50 100C22.3858 100 0 77.6142 0 50Z" fill="#EDEBF7"/>
<path d="M46.6406 58.3594L61.6406 43.3594L59.2969 40.9375L46.6406 53.5938L40.7031 47.6562L38.3594 50L46.6406 58.3594ZM38.2031 38.2812C41.4844 35 45.4167 33.3594 50 33.3594C54.5833 33.3594 58.4896 35 61.7188 38.2812C65 41.5104 66.6406 45.4167 66.6406 50C66.6406 54.5833 65 58.5156 61.7188 61.7969C58.4896 65.026 54.5833 66.6406 50 66.6406C45.4167 66.6406 41.4844 65.026 38.2031 61.7969C34.974 58.5156 33.3594 54.5833 33.3594 50C33.3594 45.4167 34.974 41.5104 38.2031 38.2812Z" fill="#3C2769"/>
</svg>
