<svg width="100" height="100" viewBox="0 0 100 100" fill="none" xmlns="http://www.w3.org/2000/svg">
<path d="M0 50C0 22.3858 22.3858 0 50 0C77.6142 0 100 22.3858 100 50C100 77.6142 77.6142 100 50 100C22.3858 100 0 77.6142 0 50Z" fill="#EDEBF7"/>
<path d="M58.2812 38.3594L59.375 40.625L61.6406 41.6406L59.375 42.7344L58.2812 45L57.2656 42.7344L55 41.6406L57.2656 40.625L58.2812 38.3594ZM48.3594 40.2344V36.6406H51.6406C52.5781 36.6406 53.4375 36.901 54.2188 37.4219L56.6406 35C55.9635 34.4792 55.1823 34.0885 54.2969 33.8281C53.4635 33.5156 52.5781 33.3594 51.6406 33.3594C51.1719 33.3594 50.5469 33.3594 49.7656 33.3594C49.0365 33.3594 48.2292 33.3594 47.3438 33.3594C46.5104 33.3594 45.7292 33.3594 45 33.3594C44.2708 33.3594 43.6719 33.3594 43.2031 33.3594C42.7344 33.3594 42.5 33.3594 42.5 33.3594V36.6406H45V40.2344C43.5417 40.5469 42.2396 41.1979 41.0938 42.1875C40 43.1771 39.2188 44.401 38.75 45.8594H45.3906L55 49.4531V48.3594C55 47.0052 54.7135 45.7812 54.1406 44.6875C53.5677 43.5417 52.7604 42.5781 51.7188 41.7969C50.7292 41.0156 49.6094 40.4948 48.3594 40.2344ZM31.6406 66.6406H38.3594V48.3594H31.6406V66.6406ZM63.3594 58.3594H51.6406L48.2031 57.1094L48.75 55.5469L51.6406 56.6406H56.3281C56.901 56.6406 57.3698 56.4583 57.7344 56.0938C58.151 55.7292 58.3594 55.2604 58.3594 54.6875C58.3594 53.8021 57.9167 53.1771 57.0312 52.8125L44.9219 48.3594H41.6406V63.3594L53.3594 66.6406L66.6406 61.6406C66.6406 60.7552 66.3021 60 65.625 59.375C65 58.6979 64.2448 58.3594 63.3594 58.3594ZM63.3594 53.3594C64.2448 53.3594 65 53.0469 65.625 52.4219C66.3021 51.7448 66.6406 50.9375 66.6406 50C66.6406 49.5312 66.4583 48.9323 66.0938 48.2031C65.7812 47.474 65.4167 46.7448 65 46.0156C64.5833 45.2344 64.1927 44.6094 63.8281 44.1406C63.5156 43.6198 63.3594 43.3594 63.3594 43.3594C63.3594 43.3594 63.1771 43.6198 62.8125 44.1406C62.5 44.6094 62.1094 45.2344 61.6406 46.0156C61.224 46.7448 60.8333 47.474 60.4688 48.2031C60.1562 48.9323 60 49.5312 60 50C60 50.9375 60.3125 51.7448 60.9375 52.4219C61.6146 53.0469 62.4219 53.3594 63.3594 53.3594Z" fill="#3C2769"/>
</svg>
